<svg xmlns="http://www.w3.org/2000/svg" xmlns:xlink="http://www.w3.org/1999/xlink" viewBox="0 0 150 150">
  <defs>
    <linearGradient id="linear-gradient" x1="3277.42848" y1="-2841.43163" x2="3307.35765" y2="-2841.43163" gradientTransform="translate(3417.7505 -2808.6454) rotate(180)" gradientUnits="userSpaceOnUse">
      <stop offset="0" stop-color="#ffdd2e"/>
      <stop offset="0.03829" stop-color="#fccc30"/>
      <stop offset="0.09305" stop-color="#f9ba32"/>
      <stop offset="0.16005" stop-color="#f7ae33"/>
      <stop offset="0.25148" stop-color="#f6a734"/>
      <stop offset="0.47828" stop-color="#f6a534"/>
      <stop offset="0.60786" stop-color="#f7ad33"/>
      <stop offset="0.80419" stop-color="#fbc231"/>
      <stop offset="1" stop-color="#ffdd2e"/>
    </linearGradient>
    <linearGradient id="linear-gradient-2" x1="9.67798" y1="138.16012" x2="39.54346" y2="138.16012" gradientTransform="matrix(1, 0, 0, 1, 0, 0)" xlink:href="#linear-gradient"/>
    <linearGradient id="linear-gradient-3" x1="93.36584" y1="90.6001" x2="93.36584" y2="150.23779" gradientTransform="translate(-27.66226 214.39395) rotate(-90)" gradientUnits="userSpaceOnUse">
      <stop offset="0" stop-color="#2e2e2e"/>
      <stop offset="0.01045" stop-color="#323232"/>
      <stop offset="0.05855" stop-color="#3e3e3e"/>
      <stop offset="0.12426" stop-color="#454545"/>
      <stop offset="0.28745" stop-color="#474747"/>
      <stop offset="0.8384" stop-color="#3d3d3d"/>
    </linearGradient>
    <linearGradient id="linear-gradient-4" x1="93.36544" y1="91.92867" x2="93.36544" y2="148.9617" gradientUnits="userSpaceOnUse">
      <stop offset="0" stop-color="#d0d2d3"/>
      <stop offset="0.00721" stop-color="#dcddde"/>
      <stop offset="0.01926" stop-color="#e8e9ea"/>
      <stop offset="0.03575" stop-color="#efeff0"/>
      <stop offset="0.07664" stop-color="#f1f1f2"/>
      <stop offset="0.15616" stop-color="#d0d2d3"/>
      <stop offset="0.8384" stop-color="#929497"/>
      <stop offset="0.9451" stop-color="#f1f1f2"/>
      <stop offset="1" stop-color="#d0d2d3"/>
    </linearGradient>
  </defs>
  <title>codor</title>
  <g style="isolation: isolate">
    <g id="Layer_1" data-name="Layer 1">
      <g>
        <path d="M29.96943,130.545l.2083.13905.09.06284Zm97.10282-74.558a1.81921,1.81921,0,0,1-.62918.81991A5.62779,5.62779,0,0,0,127.07225,55.987Z" fill="#e6e7e8"/>
        <g>
          <path d="M123.10826,59.58851c3.8769-2.78225,4.926-4.24185,4.15061-5.92942s-4.51546-3.37523-8.1643-4.28739-8.80292-.95781-9.16773,2.87346,5.56447,8.93971,5.56447,8.93971Z" fill="#0073ef"/>
          <path d="M113.78213,49.77015a.82483.82483,0,0,0-.14135.25357c-.36425,1.15284,1.99271,2.92569,5.2645,3.95962s6.21944.93756,6.58379-.21528c.00325-.01051.00248-.022.00535-.03257l.00449.00143,2.67143-8.49716-.00449-.00143c.312-1.15341-2.02785-2.90248-5.26985-3.927-3.27179-1.034-6.21944-.93756-6.58369.21528a.82367.82367,0,0,0-.03018.28881Z" fill="#ffdd15"/>
          <path d="M134.95563,29.15466c-.08348,5.51015-4.53357,10.8991-10.06358,10.89911a10.10742,10.10742,0,0,1-10.10744-10.10735c0-2.26432,1.41595.24334,2.67366-1.44174,1.67618-2.75369-1.33413-6.84158-2.65122-7.33763a2.39267,2.39267,0,0,0-2.03531.73548,12.34894,12.34894,0,0,0-2.37889,8.04389,14.49916,14.49916,0,0,0,14.49921,14.49913c8.00766,0,14.15146-2.326,15.3145-7.64536.48774-2.2308-.7184-7.37191-.86441-7.99747C138.76041,25.5441,134.93192,26.48091,134.95563,29.15466Z" fill="url(#linear-gradient)"/>
          <path d="M138.17116,33.60174c-1.152.08529-1.79586.39339-2.49237,3.303a10.104,10.104,0,1,1-18.48786-7.8222c1.36189-2.83563-3.10218-4.35788-5.18883,1.50889-.08309.23341-.17488.51181-.27048.82029a14.49727,14.49727,0,1,0,28.51706,5.24012C140.2439,34.79259,139.55177,33.49945,138.17116,33.60174Z" fill="#ffdd15"/>
          <g>
            <path d="M46.71271,130.85707h55.21214a4.85737,4.85737,0,0,1,4.85737,4.85737v3.93862a4.85728,4.85728,0,0,1-4.85728,4.85728H46.71262a4.85727,4.85727,0,0,1-4.85727-4.85727v-3.93863a4.85736,4.85736,0,0,1,4.85736-4.85736Z" fill="#009444"/>
            <rect x="41.80979" y="134.58398" width="21.71065" height="5.8382" fill="#006838"/>
            <rect x="83.90021" y="134.58393" width="22.85917" height="5.8382" fill="#652d90"/>
            <rect x="66.71324" y="134.58395" width="13.63832" height="5.8382" fill="#652d90"/>
          </g>
          <rect x="62.85893" y="64.73121" width="22.44048" height="9.09941" fill="#ffdd15"/>
          <path d="M62.18758,25.905H85.69293A10.20685,10.20685,0,0,1,95.89978,36.11185v19.0283A10.20687,10.20687,0,0,1,85.69291,65.347H62.18759A10.20685,10.20685,0,0,1,51.98074,55.14017V36.11183A10.20684,10.20684,0,0,1,62.18758,25.905Z" fill="#ffdd15"/>
          <g>
            <g>
              <path d="M26.85511,111.41487c-3.86866,2.77633-4.91554,4.23282-4.14178,5.9168s4.50585,3.368,8.14691,4.27826,8.78419.95586,9.14824-2.86735-5.55264-8.92069-5.55264-8.92069Z" fill="#0073ef"/>
              <path d="M36.16138,121.21242a.82212.82212,0,0,0,.141-.25312c.36348-1.15038-1.98837-2.91937-5.25329-3.95119s-6.2062-.93557-6.56968.21482c-.00334.01058-.00257.02192-.00543.03259l-.00448-.00143-2.66575,8.479.00448.00143c-.31125,1.151,2.02353,2.8963,5.25863,3.91869,3.26484,1.03173,6.2062.93557,6.56978-.21482a.82236.82236,0,0,0,.03-.28819Z" fill="#ffdd2e"/>
              <path d="M15.033,141.78394c.08328-5.49842,4.52392-10.8759,10.04215-10.87591A10.086,10.086,0,0,1,35.161,140.994c0,2.25941-1.41294-.24283-2.66785,1.43858-1.67263,2.74783,1.33127,6.827,2.64547,7.322a2.38755,2.38755,0,0,0,2.03106-.73392,12.323,12.323,0,0,0,2.37375-8.02667A14.46834,14.46834,0,0,0,25.0751,126.52559c-7.99062,0-14.12134,2.32108-15.28191,7.62919-.4867,2.22605.71688,7.35613.86269,7.98045C11.23627,145.38691,15.0566,144.452,15.033,141.78394Z" fill="url(#linear-gradient-2)"/>
              <path d="M11.82427,137.34642c1.14951-.0852,1.79213-.39264,2.48706-3.2961a10.08249,10.08249,0,1,1,18.4486,7.80555c-1.35908,2.8296,3.09549,4.3486,5.17781-1.50558.08281-.233.1744-.51082.26979-.81864a14.46641,14.46641,0,1,0-28.45636-5.229C9.75594,136.158,10.44659,137.44839,11.82427,137.34642Z" fill="#ffdd2e"/>
              <path d="M48.89763,79.91552a1.95074,1.95074,0,0,0-2.23177-1.69417l-1.59887.24474a12.81137,12.81137,0,0,0-8.47406,5.19975h-.0001a81.22613,81.22613,0,0,0-11.59839,23.36984c-.93852,3.0404-1.92269,6.23329-2.8024,9.09577l.15725-.16516c.54749-1.68646,4.6361-2.55771,8.6296-1.5701,4.30552,1.0648,8.50058,4.113,8.02837,5.52976-.32593.9776.52119.41607.89458-.85347l3.92982-13.11925,6.827-11.46944Z" fill="#00abf7"/>
              <path d="M43.83166,105.95322l6.827-11.46944-1.761-14.56826a1.95074,1.95074,0,0,0-2.23177-1.69417l-1.59887.24474a12.80718,12.80718,0,0,0-6.52822,3.054c2.50213-.0873,4.79013,4.647,5.38387,9.32248.54561,4.29648-.95241,15.18334-1.73825,20.37422Z" fill="#0073ef"/>
            </g>
            <path d="M127.08095,55.96849c-.54867,1.69-4.64609,2.56307-8.64811,1.57336-4.09771-1.0134-8.08742-3.81684-8.07367-5.31263a.7057.7057,0,0,1-.05032-.09188,3.73359,3.73359,0,0,1-.21041-.66042l-4.54568,14.526L98.71111,77.49682l1.76476,14.59923a1.9549,1.9549,0,0,0,2.23653,1.69788l1.60237-.24526a12.83889,12.83889,0,0,0,8.49205-5.21084h0A81.40207,81.40207,0,0,0,124.43,64.91815c.94043-3.04689,1.92679-6.24668,2.80839-9.11517Z" fill="#00abf7"/>
            <path d="M105.55265,66.00282l-6.84153,11.494,1.76476,14.59923a1.955,1.955,0,0,0,2.23653,1.69788l1.60237-.24535a12.83516,12.83516,0,0,0,6.54214-3.06055c-2.50756.08749-4.80044-4.6569-5.39544-9.34236C104.9147,76.84,106.416,65.93,107.20343,60.728Z" fill="#0073ef"/>
            <path d="M95.742,71.00241l-42.67023.00005a4.084,4.084,0,0,0-3.98778,3.203L37.38744,127.15611a4.084,4.084,0,0,0,3.98789,4.9649l65.58918-.00008a4.08388,4.08388,0,0,0,3.99513-4.93072L99.73721,74.23963A4.084,4.084,0,0,0,95.742,71.00241Z" fill="#00abf7"/>
            <path d="M87.07695,71.70495c0,4.19657-5.809,7.59865-12.97493,7.59866s-12.97495-3.40205-12.975-7.59863l1.93587-.50541L85.2977,71.162Z" fill="#00abf7"/>
            <path d="M85.27659,71.02142c0,2.433-5.003,4.40526-11.17458,4.40527s-11.17459-1.97225-11.1746-4.40524Z" fill="#ffdd15"/>
            <g>
              <path d="M99.73721,74.23953A4.08414,4.08414,0,0,0,95.742,71.00231H85.64018v3.78581s9.72493,3.5393,16.46269,10.61342Z" fill="#00abf7"/>
              <path d="M62.44712,71.00235H53.07174A4.08412,4.08412,0,0,0,49.084,74.2055L46.79111,84.58572a49.73769,49.73769,0,0,1,15.656-9.79756Z" fill="#00abf7"/>
            </g>
            <path d="M54.33743,85.41038v-.02145a3.85647,3.85647,0,0,1,3.95581-3.91282,3.70293,3.70293,0,0,1,3.19271,1.5586l-1.56952,1.21473a2.04245,2.04245,0,0,0-1.64452-.88151,1.8706,1.8706,0,0,0-1.79536,1.99954v.02145a1.86135,1.86135,0,0,0,1.79537,2.0102,2.05519,2.05519,0,0,0,1.69831-.91374l1.56951,1.11791a3.95446,3.95446,0,0,1-7.20231-2.19292Zm7.21309,0v-.02145a4.05555,4.05555,0,0,1,8.10526-.02146v.02145a4.05554,4.05554,0,0,1-8.10526.02146Zm5.96613,0v-.02145a1.94048,1.94048,0,0,0-1.92429-2.03165A1.91964,1.91964,0,0,0,63.679,85.36747v.02145a1.95555,1.95555,0,0,0,1.93484,2.03177A1.91775,1.91775,0,0,0,67.51665,85.41036Zm2.7841-3.78389H73.214c2.67653,0,4.23536,1.54806,4.23536,3.71942v.02157c0,2.17136-1.58028,3.78389-4.27848,3.78389H70.30076Zm2.08545,1.83826v3.83769h.84916a1.84873,1.84873,0,0,0,2.08556-1.90273v-.02157a1.86176,1.86176,0,0,0-2.08557-1.91339Zm5.47164,1.94562V85.3889a4.05555,4.05555,0,0,1,8.10526-.02146v.02145a4.05554,4.05554,0,0,1-8.10526.02146Zm5.9659,0v-.02145a1.94029,1.94029,0,0,0-1.92405-2.03165,1.91964,1.91964,0,0,0-1.91338,2.01021v.02145a1.95558,1.95558,0,0,0,1.935,2.03177A1.9176,1.9176,0,0,0,83.82374,85.41034Zm2.78434-3.78389h3.558a3.33177,3.33177,0,0,1,2.45113.80626,2.34959,2.34959,0,0,1,.66645,1.75223v.02145a2.384,2.384,0,0,1-1.548,2.322l1.79513,2.623H91.13364l-1.51559-2.279h-.92464v2.279H86.60809Zm3.472,3.61194c.6989,0,1.118-.344,1.118-.89229v-.02145c0-.60209-.44071-.903-1.12871-.903h-1.376v1.8167Z" fill="#fff"/>
          </g>
          <path d="M51.97941,49.33721h-.27362a3.69457,3.69457,0,0,1-3.69449-3.6945V41.47307l-.00355-.00344h.20543a4.92248,4.92248,0,0,1-4.9225-4.9225v-5.022A35.74968,35.74968,0,0,1,47.2579,15.15693l.5013-.97329a7.59443,7.59443,0,0,1,6.75158-4.11731h0s0-5.19956,3.28392-7.66264S79.55106.21441,79.55106.21441a6.74361,6.74361,0,0,1,.41049,4.78908,23.24836,23.24836,0,0,1-2.05247,5.47328l14.71236,0a9.66124,9.66124,0,0,1,8.80342,5.68147h0A34.12537,34.12537,0,0,1,104.45456,30.215v6.33206a4.91906,4.91906,0,0,1-4.926,4.919h0v4.17661a3.69448,3.69448,0,0,1-3.69438,3.69451h0l0-8.89407a4.56173,4.56173,0,0,1-2.7367-3.55764c-.27372-2.59973-2.73668-9.30455-4.37861-9.30454l-30.51357,0s-1.86987-.36511-2.577,4.1961-.29653,5.38217-1.07183,6.84167a10.54369,10.54369,0,0,1-2.50861,2.78234Z" fill="#7f3f98"/>
          <path d="M53.05,25.13506c-4.39445-1.124-7.53559-.664-9.399,1.34777q-.17678,1.24147-.26578,2.49592c1.24384-3.21326,4.252-4.09964,9.39324-2.78331,1.03375.26464,2.14121.59814,3.254.948a8.78232,8.78232,0,0,0-8.034,7.35607c-.28516,1.44938-.59756,4.3808-.83143,6.85619a4.92837,4.92837,0,0,0,1.04614.11384h-.20533l.00345.00353V44.2045c.21028-2.45953.67013-7.506,1.0615-9.49384a7.43537,7.43537,0,0,1,5.43056-6.13027c-2.62818,2.70919-2.56514,8.34225-2.51375,12.888.0064.59385.01281,1.16755.01281,1.71144h.03007l.01537-1.77878a12.4081,12.4081,0,0,0,1.02638-.90605c-.03554-4.23926.07295-9.14888,2.3554-11.29076a3.8622,3.8622,0,0,1,1.3765-.82373c.7032-.92945,1.39914-.79957,1.39914-.79957h2.88882c-1.04738-.30686-2.12841-.65105-3.19615-.99286C56.27145,26.06747,54.58988,25.52892,53.05,25.13506Zm51.13727,1.15975-.1956-1.077c-5.86454,1.06718-17.99073,2.5734-21.90651.64067a8.80071,8.80071,0,0,1-4.83349-6.09339c-.70435-3.07372,1.06793-7.91992,3.48532-9.28832H77.90907s.21211-.38345.50961-1.02658a13.36932,13.36932,0,0,0-2.23392,10.55948,9.8221,9.8221,0,0,0,4.96559,6.59574c-5.03826-.682-9.96743-2.39859-12.64634-6.18229-3.16856-4.47535-4.00232-8.92109-2.34857-12.51857,1.86683-4.06268,6.79885-6.759,13.5364-7.40832a2.85311,2.85311,0,0,0-.14077-.28183S77.6617.18681,74.98843.22912c-4.77721,1.29238-8.26074,3.80826-9.82777,7.21816-1.82365,3.96765-.9535,8.80057,2.44962,13.60818a15.23484,15.23484,0,0,0,7.82249,5.3706C57.59932,23.927,54.70706,16.59,54.46589,10.06795a7.57465,7.57465,0,0,0-1.09047.08605c.38738,9.87481,7.38367,15.453,22.30643,17.42691l13.037,0c.36139,0,.76251.32519,1.17127.85964a5.98392,5.98392,0,0,1,2.53335,1.26228c2.65961,2.28151,2.54578,6.48248,2.54415,6.54417v3.70329a4.75831,4.75831,0,0,0,.84865.48545c.07917-.766.15233-1.53266.24563-2.297l-.0001-1.87142c.00745-.19321.13943-4.75977-2.91949-7.39025a6.82473,6.82473,0,0,0-1.69492-1.06927c2.12518-.10324,4.338-.31059,6.437-.5653.17774,1.29046.59949,4.5699.865,8.31942a.65928.65928,0,0,1,.03324.18327c.001.14927.005.29788.00928.44639l.01211.18767c.09063.58181.16255,1.16621.19674,1.75585a24.40082,24.40082,0,0,1,.443,3.33082h.08748a4.99437,4.99437,0,0,0,.54438-.03114A116.81126,116.81126,0,0,0,98.97,27.10546C100.8974,26.85237,102.69279,26.56662,104.18724,26.29481ZM93.29362,22.92293a33.6257,33.6257,0,0,0,4.63254.28011c2.25822,0,4.399-.15224,5.73935-.27258-.079-.36149-.17191-.71991-.26264-1.07873a49.35494,49.35494,0,0,1-9.95425-.01221c-3.0082-.42977-6.79142-2.41063-8.203-5.36535a6.29671,6.29671,0,0,1,.44628-5.99741H84.45351a7.25842,7.25842,0,0,0-.19568,6.4694C85.83519,20.248,89.99738,22.4521,93.29362,22.92293ZM48.302,17.447A4.24165,4.24165,0,0,1,47.55,14.58972l-.29206.5672c-.21793.42318-.42394.85181-.62441,1.28244A6.55121,6.55121,0,0,0,47.3768,18.032c2.6216,4.14729,10.69718,8.09277,17.34935,9.54892h2.68138l2.018.04555C62.69668,26.822,51.122,21.90825,48.302,17.447Z" fill="#662d91"/>
          <path d="M74.19,55.53519A8.78023,8.78023,0,0,1,68.296,53.45947a4.55716,4.55716,0,0,1-1.09362-.96565c-.00022,1.15761.64957,8.96823,6.94386,8.96822,6.21229,0,6.65725-7.49745,6.7682-8.87665A8.4849,8.4849,0,0,1,74.19,55.53519Z" fill="#ef4136"/>
          <circle cx="67.01259" cy="44.73059" r="2.39702" fill="#662d91"/>
          <circle cx="79.55112" cy="44.73058" r="2.39702" fill="#662d91"/>
          <path d="M57.13461,36.97212c1.87934-3.45063,6.90029-3.90042,9.45219-4.13365a26.82938,26.82938,0,0,0,3.36478-.43695,2.67469,2.67469,0,0,1-.11,1.7226c-.393.61216-2.64587,1.12536-5.2252,1.36076s-5.94721.97662-6.77958,1.62415A3.00434,3.00434,0,0,0,56.79832,38.63,3.35206,3.35206,0,0,1,57.13461,36.97212Z" fill="#662d91"/>
          <path d="M89.73235,38.62994A3.00434,3.00434,0,0,0,88.69391,37.109c-.83238-.64754-4.20015-1.38869-6.77959-1.62414s-4.83223-.74859-5.2252-1.36075a2.67469,2.67469,0,0,1-.11-1.7226,26.8294,26.8294,0,0,0,3.36478.43694c2.55189.23322,7.57284.683,9.4522,4.13363A3.35206,3.35206,0,0,1,89.73235,38.62994Z" fill="#662d91"/>
        </g>
        <rect x="66.42529" y="82.66504" width="53.8811" height="76.72613" rx="13" ry="13" transform="translate(214.39395 27.66226) rotate(90)" fill="url(#linear-gradient-3)"/>
        <path d="M68.17885,95.26384H118.552a12,12,0,0,1,12,12v27.52776a12,12,0,0,1-12,12H68.17887a12,12,0,0,1-12-12V107.26385a12,12,0,0,1,12-12Z" fill="url(#linear-gradient-4)"/>
        <circle cx="92.61503" cy="119.02666" r="6.08661" fill="#d1d3d4" style="mix-blend-mode: multiply"/>
        <g>
          <path d="M74.11453,43.60151a7.22893,7.22893,0,1,1-7.22894-7.22895A7.22894,7.22894,0,0,1,74.11453,43.60151Zm-7.22894-4.3066a4.30661,4.30661,0,1,0,4.3066,4.30661A4.3066,4.3066,0,0,0,66.88559,39.29491Z" fill="#f15a29"/>
          <path d="M87.64955,43.6015a7.22893,7.22893,0,1,1-7.22894-7.22895A7.22894,7.22894,0,0,1,87.64955,43.6015Zm-7.22894-4.3066a4.30661,4.30661,0,1,0,4.3066,4.30661A4.3066,4.3066,0,0,0,80.42061,39.29489Z" fill="#f15a29"/>
          <polygon points="60.272 45.601 51.043 42.679 51.043 39.235 60.229 42.619 60.272 45.601" fill="#f15a29"/>
          <polygon points="87.342 45.601 96.57 42.679 96.57 39.235 87.385 42.619 87.342 45.601" fill="#f15a29"/>
        </g>
      </g>
    </g>
  </g>
</svg>
