<svg id="Layer_1" data-name="Layer 1" xmlns="http://www.w3.org/2000/svg" viewBox="0 0 150 150">
  <title>Flowers</title>
  <g>
    <path d="M45.30284,72.07244a1.49053,1.49053,0,0,0-.22855-1.87664,1.27677,1.27677,0,0,0-1.826-.03672,1.47275,1.47275,0,0,0-2.00182.22392c-.60866.64993-.27714,1.20472.04364,1.837-.49927.595-.693,1.12333.01769,1.7888a1.58032,1.58032,0,0,0,2.08078.21586,1.59021,1.59021,0,0,0,2.033-.35064C46.07665,73.17451,45.83981,72.64016,45.30284,72.07244Zm-1.75564.06091a.7151.7151,0,1,1,.08183-1.009A.7122.7122,0,0,1,43.54719,72.13335Z" fill="#1b75bc"/>
    <g>
      <g>
        <path d="M83.23391,70.00849a14.192,14.192,0,0,1,4.37074,6.44706,72.684,72.684,0,0,0-2.33756-27.84779c-.84538-2.9757-5.5518-1.9053-4.7,1.09321A69.18529,69.18529,0,0,1,83.23391,70.00849Z" fill="#009444"/>
        <circle cx="81.43678" cy="45.59225" r="4.82465" fill="#92278f"/>
        <path d="M66.538,42.724A12.30693,12.30693,0,0,1,54.27016,28.68624a12.00372,12.00372,0,0,0-4.24922,16.236,12.35928,12.35928,0,0,1,15.571,4.96236,12.05923,12.05923,0,0,0,6.70138-8.58355A12.32615,12.32615,0,0,1,66.538,42.724Z" fill="#ec008c"/>
        <path d="M68.55956,38.70282a308.86023,308.86023,0,0,1,30.40553,89.05442c.54473,3.05152,5.19516,1.75847,4.65231-1.28258A313.06736,313.06736,0,0,0,72.7255,36.26772c-1.44068-2.75174-5.60606-.31557-4.16594,2.43509Z" fill="#2bb673"/>
        <path d="M123.19029,51.05522a417.9158,417.9158,0,0,0-24.45871,77.942c-.63592,3.03736,4.13774,3.7459,4.7733.71024A411.12441,411.12441,0,0,1,127.602,53.008c1.214-2.85471-3.19418-4.81587-4.41175-1.95282Z" fill="#2bb673"/>
        <g>
          <path d="M106.82562,39.40291a9.4727,9.4727,0,0,1,3.92451.84937c.13361-1.867.271-3.73379.39423-5.60174.20276-3.07383-4.56981-3.80829-4.77482-.6998-.12089,1.83329-.25594,3.66533-.38687,5.49775C106.2613,39.42374,106.541,39.40291,106.82562,39.40291Z" fill="#009444"/>
          <path d="M106.82549,60.97292a9.435,9.435,0,0,1-2.57137-.3681q-2.02757,21.866-5.00881,43.63244c-.42073,3.07078,4.35191,3.78666,4.77488.6998q3.02377-22.06839,5.065-44.24638A9.44585,9.44585,0,0,1,106.82549,60.97292Z" fill="#009444"/>
        </g>
        <path d="M91.62463,36.91078a417.91692,417.91692,0,0,0,9.1827,81.17206c.64792,3.03483,5.29987,1.75055,4.65231-1.28258a411.1255,411.1255,0,0,1-9.01036-79.88948c-.04536-3.10181-4.87014-3.11087-4.82465,0Z" fill="#009444"/>
        <path d="M118.61168,121.15739a413.63028,413.63028,0,0,1-7.75219-60.30287,10.0304,10.0304,0,0,1-4.03393.846c-.25052,0-.49617-.01952-.74213-.03747a422.39852,422.39852,0,0,0,7.876,60.7769C114.5808,125.47981,119.23229,124.19325,118.61168,121.15739Z" fill="#2bb673"/>
        <path d="M85.24109,88.33764a13.11443,13.11443,0,0,1-3.99041,2.71227A68.049,68.049,0,0,1,91.66551,121.3314c.28549,3.06541,5.11287,3.09522,4.82463,0A73.27324,73.27324,0,0,0,85.24109,88.33764Z" fill="#009444"/>
        <path d="M42.69675,73.83747A422.37443,422.37443,0,0,0,83.0709,123.2896c2.138,2.24846,5.40068-1.30773,3.26547-3.55327A413.67726,413.67726,0,0,1,46.78811,71.28051c-1.76973-2.53759-5.87175.00408-4.09136,2.557Z" fill="#2bb673"/>
        <path d="M55.29861,64.45374q12.07292,33.2116,21.78734,67.2031c.85166,2.98017,5.50842,1.7132,4.65231-1.28258q-9.70995-33.97768-21.78734-67.2031c-1.05244-2.89518-5.71661-1.64524-4.65231,1.28258Z" fill="#009444"/>
        <g>
          <path d="M70.52515,67.17252a13.00565,13.00565,0,0,1,4.67338-1.17371q-2.51267-9.23206-5.1961-18.41843c-.86546-2.95649-5.59987-2.00687-4.72469.98292Q67.9941,57.84288,70.52515,67.17252Z" fill="#009444"/>
          <path d="M81.62944,90.86742a12.99547,12.99547,0,0,1-4.66433,1.2335q3.03854,12.42127,5.76441,24.91923c.65958,3.02844,5.38776,2.06136,4.72469-.98292Q84.70455,103.4131,81.62944,90.86742Z" fill="#009444"/>
        </g>
      </g>
      <g>
        <path d="M66.46047,19.43413A11.09668,11.09668,0,1,0,77.55715,30.53081,11.09669,11.09669,0,0,0,66.46047,19.43413ZM72.23342,25.816A10.44567,10.44567,0,0,1,62.966,32.52664h-.013a4.1258,4.1258,0,0,1-4.14142-5.738,6.88157,6.88157,0,0,1,6.10514-4.42124h.00648a2.82378,2.82378,0,0,1,2.82712,3.91447,4.53615,4.53615,0,0,1-4.08157,2.95481h-.007a1.98924,1.98924,0,0,1-1.98118-2.74632,3.09647,3.09647,0,0,1,2.78622-2.01709h.001a.51076.51076,0,0,1,.001,1.02151,2.08013,2.08013,0,0,0-1.81857,1.3168.97789.97789,0,0,0,1.01154,1.40358h.00449a3.56093,3.56093,0,0,0,3.11442-2.25451,1.81193,1.81193,0,0,0-1.857-2.57174h-.005a5.79263,5.79263,0,0,0-5.1375,3.72094,3.11383,3.11383,0,0,0,3.17228,4.3953H62.964a9.35673,9.35673,0,0,0,8.2998-6.01037.51073.51073,0,0,1,.96964.32122Z" fill="#0ea7dd"/>
        <path d="M74.55455,27.3912c-.20144,0-.09427,1.23207-.14018,1.69854-.51774,5.26038-4.92065,8.55521-10.29056,8.02431-1.527-.151-4.20164-1.76754-4.20163-1.17985s3.35365,2.64208,5.60694,2.8639c4.75427.468,9.10991-2.45988,9.45572-7.76108C75.06821,29.75888,74.756,27.3912,74.55455,27.3912Z" fill="#1b75bc"/>
        <path d="M94.46333,16.64436a10.13175,10.13175,0,1,0,10.13178,10.13172A10.13176,10.13176,0,0,0,94.46333,16.64436ZM90.6556,27.61959l-.01216-.00455A4.38563,4.38563,0,0,1,87.776,24.74028a4.38758,4.38758,0,0,1,.99339-3.949,6.88148,6.88148,0,0,1,7.26557-2.00793l.006.00231a2.8237,2.8237,0,0,1,1.28026,4.65579,4.536,4.536,0,0,1-4.857,1.34142l-.00655-.00243a1.98922,1.98922,0,0,1-.89607-3.26562,3.09651,3.09651,0,0,1,3.31556-.91577l.00094.00037a.51077.51077,0,0,1-.3562.95742,2.08007,2.08007,0,0,0-2.16417.59792.97789.97789,0,0,0,.457,1.66863l.00424.00156a3.56091,3.56091,0,0,0,3.7061-1.02345,1.81191,1.81191,0,0,0-.84077-3.05862l-.00468-.00175a5.79262,5.79262,0,0,0-6.11418,1.69,3.40155,3.40155,0,0,0-.805,3.03767,3.3961,3.3961,0,0,0,2.24055,2.18936l.00979.00362a9.35672,9.35672,0,0,0,9.87733-2.72942.5107.5107,0,0,1,.79612.63988A10.44567,10.44567,0,0,1,90.6556,27.61959Z" fill="#be1e2d"/>
        <path d="M103.25559,26.498c-.1876-.07338-.53659,1.11308-.74927,1.53078-2.39835,4.71035-7.69891,6.17508-12.50641,3.7247-1.367-.69678-3.269-3.1765-3.48312-2.62919s2.16076,3.68208,4.17841,4.7094c4.25708,2.16757,9.37995,1.02735,11.63305-3.78365C102.87148,28.89012,103.44319,26.5714,103.25559,26.498Z" fill="#be1e2d"/>
        <path d="M111.3496,18.57423A13.4259,13.4259,0,0,0,104.268,20.595a12.10789,12.10789,0,0,1-5.52979,16.2984,13.55054,13.55054,0,0,0,3.09141,4.74857,10.56929,10.56929,0,0,1,13.2298,3.422,13.50392,13.50392,0,0,0-3.70978-26.48972Z" fill="#ffde17"/>
        <path d="M118.38118,23.5884c-1.329-1.13648-4.17241-2.7316-4.33713-2.51145s1.26966,1.11073,1.742,1.54243c5.32672,4.86821,5.32728,12.37588.35514,17.81165a4.996,4.996,0,0,1-.43394.40938,13.41515,13.41515,0,0,1,.52148,1.5978,12.05764,12.05764,0,0,0,2.90262-2.166C123.53133,35.458,123.89314,28.30212,118.38118,23.5884Z" fill="#fbb040"/>
        <path d="M41.868,65.22123a1.53039,1.53039,0,0,0-1.3749-1.96205,2.2484,2.2484,0,0,0-2.62447,1.03447c-1.10623-.18557-1.90569-.0398-2.21344,1.33223a2.28218,2.28218,0,0,0,1.25542,2.74783,2.29651,2.29651,0,0,0,1.9255,2.27359c1.35041.30289,1.842-.38321,2.15528-1.46738a2.25648,2.25648,0,0,0,2.05173-1.897A1.54431,1.54431,0,0,0,41.868,65.22123Z" fill="#1b75bc"/>
        <path d="M132.41753,62.34541a1.53039,1.53039,0,0,0-1.3749-1.96205,2.2484,2.2484,0,0,0-2.62447,1.03447c-1.10623-.18557-1.90569-.0398-2.21344,1.33223a2.28218,2.28218,0,0,0,1.25542,2.74783,2.29651,2.29651,0,0,0,1.9255,2.27359c1.35041.30289,1.842-.38321,2.15528-1.46738a2.25648,2.25648,0,0,0,2.05173-1.897A1.54431,1.54431,0,0,0,132.41753,62.34541Z" fill="#1b75bc"/>
        <path d="M27.2773,59.93219a1.54422,1.54422,0,0,0-1.78909-1.55886,1.53038,1.53038,0,0,0-1.94494-1.399,2.24838,2.24838,0,0,0-2.13664,1.84185c-1.1056.18953-1.81223.59075-1.65043,1.98753A2.28215,2.28215,0,0,0,21.84737,62.984a2.29649,2.29649,0,0,0,2.56739,1.51159c1.37481-.15928,1.6127-.9691,1.551-2.09594A2.25651,2.25651,0,0,0,27.2773,59.93219Z" fill="#0ea7dd"/>
        <path d="M35.57473,89.9808a1.5442,1.5442,0,0,0-2.27458.67612,1.53037,1.53037,0,0,0-2.22308.89333,2.24843,2.24843,0,0,0,.41125,2.79083c-.432,1.03521-.47159,1.84684.79466,2.45822a2.28212,2.28212,0,0,0,2.96118-.59843,2.29647,2.29647,0,0,0,2.65146-1.35873c.60173-1.24637.04522-1.881-.93945-2.43233A2.25655,2.25655,0,0,0,35.57473,89.9808Z" fill="#0ea7dd"/>
        <path d="M43.46576,79.45192a1.5442,1.5442,0,0,0-2.27458.67612,1.53037,1.53037,0,0,0-2.22308.89333,2.24843,2.24843,0,0,0,.41125,2.79083c-.432,1.03521-.47159,1.84684.79466,2.45822A2.28212,2.28212,0,0,0,43.1352,85.672a2.29647,2.29647,0,0,0,2.65146-1.35873c.60173-1.24637.04522-1.881-.93945-2.43233A2.25655,2.25655,0,0,0,43.46576,79.45192Z" fill="#1b75bc"/>
        <path d="M17.05682,74.824a1.5442,1.5442,0,0,0-2.27458.67612,1.53037,1.53037,0,0,0-2.22308.89333,2.24843,2.24843,0,0,0,.41125,2.79083c-.432,1.03521-.47159,1.84684.79466,2.45822a2.28212,2.28212,0,0,0,2.96118-.59843,2.29647,2.29647,0,0,0,2.65146-1.35873c.60173-1.24637.04522-1.881-.93945-2.43233A2.25655,2.25655,0,0,0,17.05682,74.824Z" fill="#1b75bc"/>
        <path d="M36.37756,84.44934a1.53122,1.53122,0,0,0-.025-2.39624,2.24647,2.24647,0,0,0-2.749-.62907c-.80739-.7782-1.54907-1.10959-2.57827-.15107a2.28394,2.28394,0,0,0-.51764,2.97728,2.29761,2.29761,0,0,0,.303,2.96447c.94246,1.013,1.73563.72449,2.60668.00666a2.25546,2.25546,0,0,0,2.76412-.40648A1.54527,1.54527,0,0,0,36.37756,84.44934Z" fill="#0ea7dd"/>
        <path d="M31.3048,69.39965a1.53124,1.53124,0,0,0,2.05058-1.24007,2.24644,2.24644,0,0,0-.85622-2.68686c.2595-1.09094.16769-1.89807-1.181-2.29682a2.284,2.284,0,0,0-2.82681,1.06833,2.29765,2.29765,0,0,0-2.39849,1.76839c-.393,1.32664.25877,1.86288,1.3198,2.24784a2.2554,2.2554,0,0,0,1.75559,2.17331A1.54529,1.54529,0,0,0,31.3048,69.39965Z" fill="#1b75bc"/>
        <path d="M39.95636,52.53645a1.53124,1.53124,0,0,0,2.05058-1.24007,2.24644,2.24644,0,0,0-.85622-2.68686c.2595-1.09094.16769-1.89807-1.181-2.29682A2.284,2.284,0,0,0,37.1429,47.381a2.29765,2.29765,0,0,0-2.39849,1.76839c-.393,1.32664.25877,1.86288,1.3198,2.24784a2.2554,2.2554,0,0,0,1.75559,2.17331A1.54529,1.54529,0,0,0,39.95636,52.53645Z" fill="#1b75bc"/>
        <path d="M21.303,68.84592a2.15258,2.15258,0,0,0-.13139-2.727,1.84383,1.84383,0,0,0-2.62608-.24536,2.12684,2.12684,0,0,0-2.9068.1115c-.94515.87194-.52613,1.706-.13077,2.65047-.78181.80441-1.11649,1.5449-.16306,2.57828a2.2822,2.2822,0,0,0,2.97419.53024,2.29646,2.29646,0,0,0,2.96509-.29074C22.3014,70.51481,22.01661,69.72021,21.303,68.84592ZM18.768,68.74859a1.03271,1.03271,0,1,1,.2242-1.4446A1.02851,1.02851,0,0,1,18.768,68.74859Z" fill="#1b75bc"/>
        <path d="M28.94126,75.94212a2.15258,2.15258,0,0,0,.90943-2.57426,1.8438,1.8438,0,0,0-2.33836-1.22,2.12682,2.12682,0,0,0-2.73317-.99578c-1.20466.44988-1.13208,1.38039-1.12318,2.40427-1.02792.44911-1.61772,1.00809-1.12578,2.32524a2.28217,2.28217,0,0,0,2.55292,1.61536,2.29644,2.29644,0,0,0,2.8549.85188C29.23452,77.86458,29.27129,77.02129,28.94126,75.94212Zm-2.31007-1.04856a1.0327,1.0327,0,1,1,.75374-1.25259A1.02849,1.02849,0,0,1,26.63118,74.89356Z" fill="#1b75bc"/>
        <path d="M37.17656,59.90776a2.15258,2.15258,0,0,0,.90943-2.57426,1.8438,1.8438,0,0,0-2.33836-1.22,2.12682,2.12682,0,0,0-2.73317-.99578c-1.20466.44988-1.13208,1.38039-1.12318,2.40427-1.02792.44911-1.61772,1.00809-1.12578,2.32524a2.28217,2.28217,0,0,0,2.55292,1.61536,2.29644,2.29644,0,0,0,2.8549.85188C37.46981,61.83021,37.50659,60.98692,37.17656,59.90776ZM34.86648,58.8592a1.0327,1.0327,0,1,1,.75374-1.25259A1.02849,1.02849,0,0,1,34.86648,58.8592Z" fill="#1b75bc"/>
        <path d="M31.49416,51.74878a2.15455,2.15455,0,0,0-.42477-2.69828,1.843,1.843,0,0,0-2.637.03923,2.12582,2.12582,0,0,0-2.87759.42446c-.8455.96924-.339,1.75359.1559,2.6504-.69042.88445-.94324,1.65708.116,2.58209a2.2811,2.2811,0,0,0,3.0138.20658,2.29537,2.29537,0,0,0,2.9162-.609C32.66664,53.301,32.29781,52.54142,31.49416,51.74878Zm-2.53058.17665a1.033,1.033,0,1,1,.067-1.46106A1.028,1.028,0,0,1,28.96359,51.92543Z" fill="#1b75bc"/>
        <path d="M136.94977,71.08944a2.15455,2.15455,0,0,0-.42477-2.69828,1.843,1.843,0,0,0-2.637.03923,2.12582,2.12582,0,0,0-2.87759.42446c-.8455.96924-.339,1.75359.1559,2.6504-.69042.88445-.94324,1.65708.116,2.58209a2.2811,2.2811,0,0,0,3.0138.20658,2.29537,2.29537,0,0,0,2.9162-.609C138.12224,72.64171,137.75342,71.88208,136.94977,71.08944Zm-2.53058.17665a1.033,1.033,0,1,1,.067-1.46106A1.028,1.028,0,0,1,134.41919,71.26609Z" fill="#1b75bc"/>
        <path d="M26.40368,85.64721a2.15258,2.15258,0,0,0,.90943-2.57426,1.8438,1.8438,0,0,0-2.33836-1.22,2.12682,2.12682,0,0,0-2.73317-.99578c-1.20466.44988-1.13208,1.38039-1.12318,2.40427-1.02792.44911-1.61772,1.00809-1.12578,2.32524A2.28217,2.28217,0,0,0,22.54554,87.202a2.29644,2.29644,0,0,0,2.8549.85188C26.69694,87.56967,26.73371,86.72638,26.40368,85.64721Zm-2.31007-1.04856a1.0327,1.0327,0,1,1,.75374-1.25259A1.02849,1.02849,0,0,1,24.09361,84.59865Z" fill="#1b75bc"/>
        <path d="M38.12616,77.07388a2.15258,2.15258,0,0,0,.90943-2.57426,1.8438,1.8438,0,0,0-2.33836-1.22,2.12682,2.12682,0,0,0-2.73317-.99578c-1.20466.44988-1.13208,1.38039-1.12318,2.40427-1.02792.44911-1.61772,1.00809-1.12578,2.32524A2.28217,2.28217,0,0,0,34.268,78.6287a2.29644,2.29644,0,0,0,2.8549.85188C38.41942,78.99633,38.45619,78.153,38.12616,77.07388Zm-2.31007-1.04856a1.0327,1.0327,0,1,1,.75374-1.25259A1.02849,1.02849,0,0,1,35.81608,76.02532Z" fill="#1b75bc"/>
        <path d="M128.46176,72.68453a2.15258,2.15258,0,0,0,.90943-2.57426,1.8438,1.8438,0,0,0-2.33836-1.22,2.12682,2.12682,0,0,0-2.73317-.99578c-1.20466.44988-1.13208,1.38039-1.12318,2.40427-1.02792.44911-1.61772,1.00809-1.12578,2.32524a2.28217,2.28217,0,0,0,2.55292,1.61536,2.29644,2.29644,0,0,0,2.8549.85188C128.755,74.607,128.79179,73.7637,128.46176,72.68453ZM126.15168,71.636a1.0327,1.0327,0,1,1,.75374-1.25259A1.02849,1.02849,0,0,1,126.15168,71.636Z" fill="#1b75bc"/>
        <path d="M55.21348,44.92055a13.509,13.509,0,1,0,13.509,13.50906A13.50907,13.50907,0,0,0,55.21348,44.92055Zm7.25316,8.92353c-2.1007,4.27952-7.53285,7.21843-12.1089,6.55056l-.01528-.00224A5.14853,5.14853,0,0,1,46.30535,57.692a5.5552,5.5552,0,0,1,.2-5.00258,8.2101,8.2101,0,0,1,7.97708-4.31587l.00767.00112A3.50618,3.50618,0,0,1,57.23793,50.223a3.781,3.781,0,0,1-.128,3.407,5.41205,5.41205,0,0,1-5.3329,2.88417l-.00817-.00125a2.48238,2.48238,0,0,1-1.91665-1.29971,2.67933,2.67933,0,0,1,.08124-2.38688,3.6945,3.6945,0,0,1,3.64045-1.96883l.00118.00019a.62859.62859,0,0,1-.18287,1.243,2.48149,2.48149,0,0,0-2.37615,1.28537,1.39725,1.39725,0,0,0-.08274,1.243,1.28719,1.28719,0,0,0,1.01952.641l.0053.00075a4.248,4.248,0,0,0,4.06922-2.20058,2.53345,2.53345,0,0,0,.1295-2.26306,2.344,2.344,0,0,0-1.85025-1.18948l-.00586-.00087a6.911,6.911,0,0,0-6.71285,3.63241,4.3074,4.3074,0,0,0-.20151,3.85873,3.984,3.984,0,0,0,3.14067,2.04166l.01234.00181a11.16293,11.16293,0,0,0,10.84461-5.867.5994.5994,0,0,1,.81695-.28213A.633.633,0,0,1,62.46664,53.84408Z" fill="#ffde17"/>
        <path d="M65.88773,53.49046c-.275,0-.1287,1.682-.19139,2.31884-.70687,7.18143-6.71781,11.67952-14.04888,10.95473-2.08462-.2061-5.73611-2.413-5.73611-1.61071s4.57842,3.60694,7.65463,3.90977c6.49059.63894,12.437-3.35822,12.90914-10.59538C66.589,56.7228,66.16274,53.49046,65.88773,53.49046Z" fill="#fbb040"/>
        <circle cx="41.74791" cy="40.45623" r="4.82465" fill="#92278f"/>
        <circle cx="126.78847" cy="48.48705" r="4.82465" fill="#92278f"/>
        <path d="M107.00742,41.73249a9.16685,9.16685,0,1,0,9.16681,9.16688A9.16685,9.16685,0,0,0,107.00742,41.73249Zm-3.8462,9.88189-.00991-.00661a3.97765,3.97765,0,0,1-1.93255-3.21661,4.29243,4.29243,0,0,1,1.7869-3.43084,6.34269,6.34269,0,0,1,6.99641-.39049l.00493.0033a2.70854,2.70854,0,0,1,1.312,2.19659,2.92161,2.92161,0,0,1-1.21124,2.33924,4.18111,4.18111,0,0,1-4.67687.26024l-.0053-.00355a1.91782,1.91782,0,0,1-.91166-1.5395,2.07015,2.07015,0,0,1,.8427-1.64157,2.85408,2.85408,0,0,1,3.1926-.17769l.00075.0005a.48568.48568,0,0,1-.53707.80866,1.9172,1.9172,0,0,0-2.084.11615,1.07969,1.07969,0,0,0-.46705.84164.99459.99459,0,0,0,.50153.78366l.00343.00231a3.282,3.282,0,0,0,3.56863-.19852,1.9578,1.9578,0,0,0,.83565-1.53925,1.81085,1.81085,0,0,0-.90156-1.44049l-.0038-.00256a5.33919,5.33919,0,0,0-5.88773.32895,3.32815,3.32815,0,0,0-1.41132,2.63085,3.07769,3.07769,0,0,0,1.52286,2.46107l.008.0053a8.624,8.624,0,0,0,9.51129-.53065.46308.46308,0,0,1,.66388.07176.48923.48923,0,0,1-.09153.67592A9.62793,9.62793,0,0,1,103.16122,51.61438Z" fill="#f7941d"/>
        <path d="M73.89295,68.4633a11.45431,11.45431,0,1,0,13.44117,9.04085A11.4543,11.4543,0,0,0,73.89295,68.4633ZM72.05164,81.467l-.01448-.00241a4.66432,4.66432,0,0,1-3.561-7.16391,7.77974,7.77974,0,0,1,7.625-3.8055l.00721.00125A3.1923,3.1923,0,0,1,78.53977,75.384a5.12811,5.12811,0,0,1-5.09746,2.543l-.00779-.00128a2.24889,2.24889,0,0,1-1.70331-3.42857,3.50071,3.50071,0,0,1,3.47969-1.736l.00112.00021a.57744.57744,0,0,1-.18729,1.13959,2.35159,2.35159,0,0,0-2.27127,1.13334,1.10554,1.10554,0,0,0,.8694,1.75207l.005.00081a4.02573,4.02573,0,0,0,3.88962-1.94029,2.04843,2.04843,0,0,0-1.597-3.21092l-.00557-.00092a6.54875,6.54875,0,0,0-6.41659,3.20275,3.52035,3.52035,0,0,0,2.7278,5.48757l.01165.00189a10.57809,10.57809,0,0,0,10.366-5.17313.57737.57737,0,0,1,1.02224.53706A11.80917,11.80917,0,0,1,72.05164,81.467Z" fill="#ec008c"/>
        <path d="M84.97338,76.711c-.20133.00647-.05472,1.23443-.08565,1.70212-.34883,5.27415-4.64367,8.70868-10.02759,8.35062-1.53094-.10182-4.25594-1.63156-4.2371-1.04418s3.43646,2.53287,5.6956,2.68216c4.76661.315,9.026-2.75129,9.20165-8.06071C85.56265,79.06087,85.17471,76.70451,84.97338,76.711Z" fill="#ec008c"/>
      </g>
      <path d="M63.8153,96.39279s-3.67212,4.34218-8.2019,4.34218-13.02655-8.68437-13.02655-8.68437H55.6134C60.14319,92.05061,63.8153,96.39279,63.8153,96.39279Z" fill="#2bb673"/>
      <path d="M110.42722,92.63076s-1.66238-5.43834.79024-9.24669,14.35442-6.24979,14.35442-6.24979l-7.05316,10.9519C116.0661,91.89453,110.42722,92.63076,110.42722,92.63076Z" fill="#2bb673"/>
      <path d="M76.42885,115.51556s-2.80527,4.94666-7.25683,5.78482-14.40849-6.12409-14.40849-6.12409L67.56513,112.766C72.0167,111.92781,76.42885,115.51556,76.42885,115.51556Z" fill="#009444"/>
      <path d="M114.10845,112.96509s5.31434,2.024,9.279-.16726,7.20045-13.902,7.20045-13.902l-11.40124,6.30142C115.222,107.38845,114.10845,112.96509,114.10845,112.96509Z" fill="#009444"/>
      <path d="M108.01052,67.89925s3.19281,1.216,5.57472-.10035,4.326-8.35175,4.326-8.35175l-6.84978,3.78551C108.67954,64.549,108.01052,67.89925,108.01052,67.89925Z" fill="#009444"/>
      <path d="M118.27277,93.80706s3.19281,1.216,5.57472-.10035,4.326-8.35175,4.326-8.35175l-6.84978,3.78551C118.94179,90.45683,118.27277,93.80706,118.27277,93.80706Z" fill="#009444"/>
    </g>
  </g>
</svg>
