<svg id="Layer_1" data-name="Layer 1" xmlns="http://www.w3.org/2000/svg" viewBox="0 0 150 150">
  <title>thks</title>
  <g>
    <g>
      <path d="M127.49932,71.08615c3.3771-5.53648,2.06093-11.45307-5.42092-12.86135a12.63728,12.63728,0,0,1,1.2974-2.37921l.00877-.41923c4.99234-7.18537.15727-15.05144-7.503-16.77972l-2.21583.40945.30461,2.92658a1.76088,1.76088,0,0,1-.44541,1.37937,1.8037,1.8037,0,0,1-1.3381.59613,1.78505,1.78505,0,0,1-1.16623-.43822l-2.22338-1.93035-2.09667,2.064a1.7736,1.7736,0,0,1-1.24814.51473,1.81223,1.81223,0,0,1-1.302-.55486,1.76752,1.76752,0,0,1-.49107-1.31005l.12311-2.93967-2.921-.35394a1.78838,1.78838,0,0,1-.84-3.21911l1.4886-1.08915a14.75586,14.75586,0,0,0-7.4559,2.53554,9.54434,9.54434,0,0,1-2.72337-3.62727V33.6095A10.46914,10.46914,0,0,0,83.64484,27.555a1.927,1.927,0,0,1-.41046.57255l-2.65117,2.459,2.24351,2.83727a1.93664,1.93664,0,0,1-1.8122,3.1216l-3.57507-.53889-.81934,3.52272a1.93657,1.93657,0,0,1-1.8941,1.50205,1.91729,1.91729,0,0,1-1.67643-.97107L71.23587,36.9175l-3.25938,1.56533a1.9315,1.9315,0,0,1-2.44256-.66258,1.90685,1.90685,0,0,1-.198-1.79659l.49265-1.255a13.81911,13.81911,0,0,0-8.66218,6.921l.72938.42657,2.92205-1.40641a1.994,1.994,0,0,1,2.79693,2.22892L62.91346,46.166l2.241,2.35159a1.99473,1.99473,0,0,1-1.25569,3.34884l-3.28053.32676-1.53772,2.85726a1.99389,1.99389,0,0,1-3.57305-.15892L54.18138,51.8684l-3.193-.583a1.99456,1.99456,0,0,1-.95158-3.44735l2.46111-2.19684-.24313-1.80637a14.98426,14.98426,0,0,1-3.16274-.242,16.15739,16.15739,0,0,0-12.07689,2.61665l1.04356,4.5841,4.53168,1.80666a1.91756,1.91756,0,0,1,.274,3.42808L38.676,58.52667l-.31468,4.866a1.91667,1.91667,0,0,1-3.1764,1.32l-2.13371-1.86692c.02776.062.06012.123.08687.18524a8.92245,8.92245,0,0,0-.30634,8.22749,12.85366,12.85366,0,0,1-.73772,1.343c.64776-.21357,1.29819-.42743,1.962-.64474l.15878-.05178c1.98241-.64891,4.11036-1.345,6.209-2.0779a4.62448,4.62448,0,0,1,3.19337-1.88461,6.22645,6.22645,0,0,1,.85774-.05983c.126,0,.25255.00345.37853.01151.11275.0069.22321.01726.33366.02991a6.61942,6.61942,0,0,1,5.30867,4.00509,6.41591,6.41591,0,0,1,2.80448,3.73356A11.40259,11.40259,0,0,1,53.555,77.003l1.16321,8.21958c1.7103-.3003,3.519-.581,5.47665-.85026l-.01323-.14382c-.09147-1.01019-.17661-1.949-.24219-2.8902-.05925-.84106-.13864-1.68211-.218-2.52547a50.7317,50.7317,0,0,1-.34056-7.09663,9.45258,9.45258,0,0,1,1.31279-4.69772A4.53356,4.53356,0,0,1,64.582,64.72429c.09089,0,.18179.0023.27326.00805l.21113.01841a5.14868,5.14868,0,0,1,1.61768.466,6.90752,6.90752,0,0,1,3.44879,3.54717A6.84965,6.84965,0,0,1,73.042,72.69534c.64891,2.29766,1.15631,4.463,1.53542,6.557-.01208-2.64168-.01611-5.34433.1513-8.19426.00518-1.07117.12944-2.537.2629-3.95331a11.84816,11.84816,0,0,1,1.08555-3.84746,4.32923,4.32923,0,0,1,3.98093-2.86143c.13979,0,.2652.00805.37163.01841a4.21991,4.21991,0,0,1,.91929.19329,5.34939,5.34939,0,0,1,2.10322,1.37376,7.39522,7.39522,0,0,1,1.46063,2.12278,6.25382,6.25382,0,0,1,1.08382.88018,8.40964,8.40964,0,0,1,2.13141,3.99933,44.31143,44.31143,0,0,1,1.2357,9.13887c.90491-.443,1.80983-.871,2.74235-1.27712.92677-.405,1.84089-.84221,2.75558-1.27942.40269-.19214.75937-.35782,1.116-.5235A13.69764,13.69764,0,0,1,97.955,70.87862a14.04985,14.04985,0,0,1,11.65226-6.20955c.3026,0,.60749.01036.91412.02876a15.53761,15.53761,0,0,1,2.26315.30835,15.86134,15.86134,0,0,1,2.73027.83185,14.58757,14.58757,0,0,1,6.79461,5.6849,16.66254,16.66254,0,0,1,3.2066,4.06261c.14209.24852.50049.85141.50049.85141a22.17373,22.17373,0,0,1,1.7034,3.271,5.74546,5.74546,0,0,1,.35509,1.40066,14.07754,14.07754,0,0,1,.19712,1.419,11.31752,11.31752,0,0,1-.49183,3.16608,7.44326,7.44326,0,0,0,2.4284-3.90382C131.77341,77.82138,131.05605,73.96585,127.49932,71.08615Z" fill="#1ba0e9"/>
      <path d="M22.19029,91.89468c-.07989.02315-.16151.05293-.2414.07651a9.43527,9.43527,0,0,0,.6492,1.11216C22.46262,92.68583,22.31722,92.299,22.19029,91.89468Z" fill="#1b75bc"/>
    </g>
    <path d="M50.722,49.6357l2.4617-2.19658a.96525.96525,0,0,0,.31495-.84081L53.08624,43.323a.96442.96442,0,0,1,1.44353-.95363l2.8462,1.665a.96387.96387,0,0,0,.897.04025l2.98314-1.40328a.96459.96459,0,0,1,1.35267,1.07843l-.70146,3.22676a.96541.96541,0,0,0,.23886.86517l2.25742,2.409A.96507.96507,0,0,1,63.796,51.871l-3.28.32759a.9643.9643,0,0,0-.74924.49523l-1.58842,2.89055a.96413.96413,0,0,1-1.72808-.07707L55.1238,52.48449a.96455.96455,0,0,0-.70161-.55983l-3.23969-.621A.96517.96517,0,0,1,50.722,49.6357Z" fill="#074bad"/>
    <path d="M54.51647,50.41562a3.12959,3.12959,0,0,0,.8281-2.79273L55.04707,46.123a.2469.2469,0,0,1,.08822-.25228.25129.25129,0,0,1,.26026-.049l1.73908.85635c.06519.03185.132.061.19945.08694a2.40313,2.40313,0,0,0,2.041-.14436l.94654-.52966a.72126.72126,0,0,0,.3616-.526l.15129-1.04387a.26287.26287,0,0,0-.17215-.28748.2429.2429,0,0,0-.21794.01932l-1.66586.93214a2.40313,2.40313,0,0,1-2.041.14436c-.06745-.026-.13426-.05509-.19945-.08694L54.799,44.38619a.25129.25129,0,0,0-.26026.049.2469.2469,0,0,0-.08822.25228l.29751,1.5a3.12935,3.12935,0,0,1-.82815,2.79263L52.8541,50.074a.24386.24386,0,0,0-.07042.23669.28824.28824,0,0,0,.20187.20014l.02688.01036.90221.10731a.72127.72127,0,0,0,.60182-.21292Z" fill="#1ba0e9"/>
    <polygon points="116.373 55.307 118.912 54.065 115.53 53.847 116.636 49.843 114.896 51.5 114.531 48.775 112.976 52.378 109.738 50.205 110.614 52.246 108.326 51.809 111.312 54.663 107.786 56.983 110.841 56.316 109.183 58.81 112.063 56.765 113.119 60.927 113.748 57.872 115.635 60.351 114.883 56.621 118.595 56.426 116.373 55.307" fill="#1057bf"/>
    <polygon points="48.07 31.141 50.132 30.133 47.386 29.956 48.284 26.705 46.871 28.051 46.575 25.838 45.312 28.764 42.683 27 43.394 28.656 41.537 28.301 43.96 30.619 41.097 32.502 43.579 31.961 42.232 33.986 44.571 32.326 45.428 35.705 45.939 33.225 47.471 35.237 46.86 32.208 49.875 32.05 48.07 31.141" fill="#ec008c"/>
    <polygon points="76.834 54.859 79.373 53.618 75.992 53.4 77.097 49.396 75.358 51.053 74.993 48.328 73.438 51.931 70.2 49.758 71.076 51.798 68.788 51.361 71.773 54.216 68.247 56.535 71.303 55.868 69.645 58.362 72.525 56.318 73.581 60.48 74.21 57.425 76.097 59.904 75.344 56.174 79.057 55.979 76.834 54.859" fill="#ffde17"/>
    <path d="M85.1092,42.38189l1.82308.165a1.28312,1.28312,0,0,0,1.10272-.45809l1.16957-1.40819a1.28311,1.28311,0,0,1,2.23816.535L91.849,43a1.28311,1.28311,0,0,0,.77655.90729l1.70026.67681a1.28311,1.28311,0,0,1,.183,2.294l-1.57169.93786a1.28311,1.28311,0,0,0-.62293,1.01881l-.11845,1.82648a1.28312,1.28312,0,0,1-2.1251.88283l-1.37785-1.205a1.28312,1.28312,0,0,0-1.16143-.27754l-1.77371.45184A1.28311,1.28311,0,0,1,84.26128,48.765l.7202-1.68228a1.28311,1.28311,0,0,0-.09491-1.19048l-.97767-1.54695A1.28311,1.28311,0,0,1,85.1092,42.38189Z" fill="#f7941d"/>
    <path d="M86.6343,48.67606a2.83368,2.83368,0,0,0,.064-2.63671l-.6144-1.24071a.22355.22355,0,0,1,.0175-.24136.22752.22752,0,0,1,.2159-.10436l1.72241.33764c.06451.01244.12978.0221.19487.02887a2.17586,2.17586,0,0,0,1.74986-.60838l.7022-.68659a.65306.65306,0,0,0,.19179-.54517l-.1144-.94817a.238.238,0,0,0-.21839-.21061.21993.21993,0,0,0-.18593.06838l-1.23585,1.20834a2.17586,2.17586,0,0,1-1.74986.60838c-.0651-.00678-.13037-.01643-.19487-.02887l-1.72241-.33764a.22752.22752,0,0,0-.2159.10436.22355.22355,0,0,0-.0175.24136l.61444,1.24079a2.83347,2.83347,0,0,1-.064,2.63664l-.67313,1.208a.2208.2208,0,0,0-.00563.22352.261.261,0,0,0,.22373.12724l.02594.0027.81395-.11936a.65305.65305,0,0,0,.47573-.32829Z" fill="#ffde17"/>
    <path d="M68.30016,22.43064l3.07862,2.09924a.91089.91089,0,0,0,1.223-.18175l2.3351-2.90377a.91089.91089,0,0,1,1.61818.50281l.27824,3.7158a.91089.91089,0,0,0,.90463.84286l3.72619.01519A.91088.91088,0,0,1,82.08,28.09966l-2.73166,2.53429a.91088.91088,0,0,0-.09495,1.23278l2.31138,2.92271a.91088.91088,0,0,1-.85028,1.46572l-3.68457-.5556a.91088.91088,0,0,0-1.023.69439l-.84394,3.62937a.91089.91089,0,0,1-1.67609.24908l-1.86292-3.22711a.91089.91089,0,0,0-1.18075-.36689l-3.36376,1.603a.91089.91089,0,0,1-1.23977-1.15511l1.36155-3.46854a.91088.91088,0,0,0-.44934-1.15189l-3.3506-1.63041a.91088.91088,0,0,1,.13012-1.68949l3.56074-1.09809a.91088.91088,0,0,0,.62043-1.0695l-.81437-3.63613A.91088.91088,0,0,1,68.30016,22.43064Z" fill="#f7941d"/>
    <path d="M70.02437,35.613l.51948-1.32342a.99613.99613,0,0,0-.49151-1.25974l-1.821-.88585a.99613.99613,0,0,1,.14217-1.84765l1.93571-.597a.99613.99613,0,0,0,.67848-1.16952l-.76214-3.404a.99614.99614,0,0,0-.411-.60542h0a.99613.99613,0,0,0-1.53319,1.0407l.44279,1.97764a.99613.99613,0,0,1-.67848,1.16953l-1.93571.597a.99613.99613,0,0,0-.14217,1.84765l1.821.88586a.99613.99613,0,0,1,.49151,1.25974l-.7406,1.88677a.99614.99614,0,0,0,1.35576,1.26323l.63007-.30022A.99613.99613,0,0,0,70.02437,35.613Z" fill="#ffde17"/>
    <path d="M109.05676,28.22235l1.264,2.93211a.75862.75862,0,0,0,.9413.41782l3.02215-1.02955a.75873.75873,0,0,1,.91382,1.07572l-1.50407,2.81666a.75884.75884,0,0,0,.26021.99656l2.689,1.72126c.75248.13572.777.75478-.27123,1.38526l-3.13944.58018a.75886.75886,0,0,0-.61682.82489l.33092,3.17583a.75875.75875,0,0,1-1.252.65174l-2.41079-2.09315a.75863.75863,0,0,0-1.02938.032l-2.27627,2.239a.75866.75866,0,0,1-1.29-.5726l.13324-3.19034a.75871.75871,0,0,0-.66679-.78492L100.985,39.017a.75882.75882,0,0,1-.35661-1.36577l2.577-1.88508a.75891.75891,0,0,0,.1979-1.01083l-1.67591-2.71767a.75883.75883,0,0,1,.84534-1.13048l3.08014.83964a.75874.75874,0,0,0,.91358-.47556l1.07958-3.005A.75867.75867,0,0,1,109.05676,28.22235Z" fill="#7f3f98"/>
    <path d="M104.69862,39.0471l.94143-.66167a.80622.80622,0,0,0,.23041-1.06991l-.83413-1.41089a.80622.80622,0,0,1,.92065-1.184l1.5734.46089a.80623.80623,0,0,0,.98009-.48679l1.00473-2.63842a.80623.80623,0,0,0-.00724-.59218h0a.80623.80623,0,0,0-1.49966.01834l-.58372,1.53286a.80623.80623,0,0,1-.98009.4868l-1.5734-.46089a.80622.80622,0,0,0-.92065,1.184l.83413,1.41089a.80622.80622,0,0,1-.23041,1.06991l-1.34216.94333a.80623.80623,0,0,0,.35155,1.458l.55941.07852A.80623.80623,0,0,0,104.69862,39.0471Z" fill="#ee2a7b"/>
    <path d="M25.83823,48.48074l4.93075.44834a.88788.88788,0,0,0,.76348-.31694L34.69519,44.804a.88846.88846,0,0,1,1.5496.371l1.09948,4.8285a.889.889,0,0,0,.53763.62841l4.5999,1.83329a.88858.88858,0,0,1,.12676,1.58845l-4.25124,2.53584a.888.888,0,0,0-.4312.70532l-.31986,4.94116a.888.888,0,0,1-1.47126.61075l-3.72688-3.26126a.88849.88849,0,0,0-.80413-.19251l-4.79757,1.22052a.88879.88879,0,0,1-1.036-1.211L27.71827,54.851a.88867.88867,0,0,0-.06578-.82429l-2.64521-4.18684A.88812.88812,0,0,1,25.83823,48.48074Z" fill="#ef4136"/>
    <path d="M30.62744,56.15529a3.24517,3.24517,0,0,0,.08168-3.01947L30.0094,51.713a.256.256,0,0,1,.02081-.27636.26058.26058,0,0,1,.2476-.11883l1.97157.39214c.07384.01445.14856.02572.2231.03368a2.49207,2.49207,0,0,0,2.006-.69119l.80641-.78409a.74791.74791,0,0,0,.2214-.62374l-.128-1.08625a.2726.2726,0,0,0-.24945-.24189.25189.25189,0,0,0-.21316.07772l-1.41924,1.37992a2.49207,2.49207,0,0,1-2.006.69119c-.07453-.008-.14926-.01924-.2231-.03368l-1.97157-.39214a.26058.26058,0,0,0-.2476.11883.256.256,0,0,0-.02081.27636l.69976,1.423a3.24492,3.24492,0,0,1-.08175,3.01939l-.77478,1.38131a.25286.25286,0,0,0-.00716.256.2989.2989,0,0,0,.25583.14643l.0297.00318.93258-.13411a.748.748,0,0,0,.54589-.37446Z" fill="#ff5e5a"/>
    <g>
      <path d="M54.85323,127.5905a3.68622,3.68622,0,0,1-2.41676-1.44333,14.27275,14.27275,0,0,1-2.65953-5.738c-.26179-1.021-.51605-2.04259-.77025-3.06514-.4498-1.81053-.88291-3.551-1.35243-5.28478a102.31465,102.31465,0,0,1-2.2631-10.37044c-.83863-5.18423-1.5695-9.86788-2.02279-14.69147-.17393-1.85759-.2902-3.70963-.40273-5.50045,0,0-.1037-1.63329-.152-2.33622a6.36068,6.36068,0,0,1,.83861-3.35734,3.43992,3.43992,0,0,1,2.67385-1.82372,5.01146,5.01146,0,0,1,1.00082-.03854c.09065.00557.18112.01412.27153.02367a5.41326,5.41326,0,0,1,4.56295,3.865,10.44914,10.44914,0,0,1,.22713,1.20289l1.81693,12.84092c2.91127-.6012,6.06289-1.11865,9.8096-1.61356-.03739-.43327-.07577-.85061-.11364-1.26791-.08847-.96938-.17437-1.91561-.24059-2.86463-.062-.87877-.14555-1.75785-.22851-2.6379A49.06909,49.06909,0,0,1,63.104,76.6387,8.32017,8.32017,0,0,1,64.24474,72.505a3.34318,3.34318,0,0,1,3.0843-1.72552l.17552.01578a3.92852,3.92852,0,0,1,1.22389.35913A5.759,5.759,0,0,1,71.908,74.88039a64.367,64.367,0,0,1,1.89432,8.86887c.29857,2.19722.61126,4.39231.9517,6.7871l.557,3.924c.194,1.26985.38153,2.6293.57488,4.0321.45028,3.26848.91549,6.64388,1.61411,10.01261a61.45515,61.45515,0,0,1,1.20556,9.66354,7.28279,7.28279,0,0,1-.58256,3.23407A5.20444,5.20444,0,0,1,72.984,124.592c-.09813-.006-.19663-.01407-.29544-.02514l-.13842-.0175A3.21461,3.21461,0,0,1,69.93,122.37055c-.10813-.27463-.22137-.54757-.33466-.81951a15.33138,15.33138,0,0,1-1.27359-4.24,28.48438,28.48438,0,0,0-.81493-3.90084c-.25216-.98243-.50833-1.98111-.69953-3.0118-.56815-3.05873-.98532-6.16619-1.38819-9.17278l-.01582-.117c-.19007-1.4156-.3802-2.8302-.58589-4.24376-1.5211.21459-7.34394,1.039-9.70788,1.37382.36814,2.39948.88055,4.81083,1.37738,7.15022l.04812.22594c.18487.87331.36973,1.74662.5475,2.62149l.34074,1.64884a54.18021,54.18021,0,0,1,1.52783,11.33625,15.1497,15.1497,0,0,1-.36559,3.45438,3.52778,3.52778,0,0,1-2.50368,2.81412,3.227,3.227,0,0,1-1.062.11478Z" fill="#074bad"/>
      <path d="M108.63772,125.33189a11.80488,11.80488,0,0,1-3.79667-.84109,11.20654,11.20654,0,0,1-3.716-2.50505c-.20287-.20545-.41084-.40121-.61931-.597l-.0827-.07807c-.302-.28453-.60353-.569-.89012-.86861a9.64778,9.64778,0,0,1-2.0032-3.22784,18.47681,18.47681,0,0,1-.846-11.36737,3.70219,3.70219,0,0,1,1.97331-2.35171,4.17761,4.17761,0,0,1,2.14322-.46137,3.45689,3.45689,0,0,1,1.1008.24658,2.88033,2.88033,0,0,1,.35929.17405,3.123,3.123,0,0,1,1.52211,3.3193c-.04855.408-.10525.8185-.16239,1.228l-.01513.10807c-.09285.66527-.18625,1.3315-.23825,1.99927a6.80728,6.80728,0,0,0,.86455,4.18388,2.83605,2.83605,0,0,0,1.4123,1.23166,5.329,5.329,0,0,0,1.693.33994c.11108.00682.22427.01177.34107.01494a8.53891,8.53891,0,0,0,3.359-.8177,4.23187,4.23187,0,0,0,2.50942-3.24975,7.18373,7.18373,0,0,0,.14224-.98122c.02828-.27325.04886-.47.07529-.66434a16.80954,16.80954,0,0,0-.90558-8.45018,10.77713,10.77713,0,0,0-2.59429-3.9831,33.0744,33.0744,0,0,0-5.67939-4.7445,10.81237,10.81237,0,0,1-3.37288-3.91591l-.29539-.49011c-2.37791-3.89182-2.18261-8.21261.55379-12.16238a12.82369,12.82369,0,0,1,11.525-5.676,14.4759,14.4759,0,0,1,2.09187.28544,14.749,14.749,0,0,1,2.52808.7702,13.80079,13.80079,0,0,1,6.87868,6.23707c.14546.25292.51072.86732.51072.86732a21.15406,21.15406,0,0,1,1.61993,3.10231,3.19389,3.19389,0,0,1-1.00881,4.10985,3.31561,3.31561,0,0,1-2.17074.68967,3.07447,3.07447,0,0,1-.97751-.227,4.21229,4.21229,0,0,1-1.25647-.83011c-.23994-.22072-.47664-.44525-.71334-.66977a24.13186,24.13186,0,0,0-1.86432-1.65439,3.99676,3.99676,0,0,0-.9198-.51545,5.81172,5.81172,0,0,0-1.82217-.40287,4.35217,4.35217,0,0,0-2.91838.70876.71531.71531,0,0,0-.28968.40219.52943.52943,0,0,0,.1841.28329,32.58752,32.58752,0,0,0,2.94558,2.41475c.52795.3994,1.04867.79435,1.55814,1.20162a10.23353,10.23353,0,0,1,2.36517,2.5521,10.406,10.406,0,0,0,.65794.90435,23.7728,23.7728,0,0,1,4.38066,8.98354c1.64841,6.54689,1.00381,12.534-1.91612,17.79545a12.38256,12.38256,0,0,1-7.03887,6.21647c-.32344.10513-.64213.22256-.96077.339a14.3471,14.3471,0,0,1-3.547.95615A16.38464,16.38464,0,0,1,108.63772,125.33189Z" fill="#074bad"/>
      <path d="M123.32862,131.14217l-1.00052-.32553-.37058-.12952a9.68361,9.68361,0,0,1-1.01781-.39644c-.098-.046-.19566-.098-.28962-.15337a3.49327,3.49327,0,0,1-1.6718-3.70441,3.38756,3.38756,0,0,1,3.31772-2.84527,8.11545,8.11545,0,0,1,1.88765.16951,8.5337,8.5337,0,0,1,1.475.45332,3.39074,3.39074,0,0,1,.42633.21154,3.62579,3.62579,0,0,1,1.51164,4.25313,3.48014,3.48014,0,0,1-3.2188,2.504l-.0686.19876Zm2.10757-11.12318a2.87546,2.87546,0,0,1-.88029-.34218,3.23437,3.23437,0,0,1-1.46285-2.08327,10.61444,10.61444,0,0,1-.08839-4.99548c.14709-.64221.30109-1.28094.46686-1.96615l.2228-.92616c1.07715-3.18241,2.357-6.46619,4.17438-10.73775a87.65645,87.65645,0,0,1,4.22446-8.33514A62.10911,62.10911,0,0,1,135.87,84.5228a26.04662,26.04662,0,0,1,2.93642-3.25744l.46335-.45778a3.69135,3.69135,0,0,1,3.44065-1.06879,4.49218,4.49218,0,0,1,1.36924.54439c.15.0895.29969.18811.45044.29612a4.54929,4.54929,0,0,1,1.558,5.26211,6.83322,6.83322,0,0,1-.91641,1.52441c-.11441.15451-.21988.29559-.31209.44149l-.55628.885c-1.5231,2.42124-3.0882,4.90916-4.48247,7.41649-1.11365,2.0042-2.05241,4.17651-2.96,6.27786-.48886,1.13052-.955,2.20868-1.44763,3.27418-.44292.95965-.92124,1.90577-1.39957,2.85189-.44415.87782-.86939,1.7188-1.26772,2.57255q-1.49011,3.197-3.02612,6.37211a4.44024,4.44024,0,0,1-2.13,2.26371A3.42045,3.42045,0,0,1,125.43619,120.019Z" fill="#074bad"/>
      <path d="M103.36675,110.109c.052-.66777.14541-1.334.23825-1.99927l.01513-.10807c.05714-.40947.11384-.82.16239-1.228a3.123,3.123,0,0,0-1.52211-3.3193,2.88029,2.88029,0,0,0-.35929-.17405,3.45689,3.45689,0,0,0-1.1008-.24658,4.17761,4.17761,0,0,0-2.14322.46137,3.70219,3.70219,0,0,0-1.97331,2.35171,17.887,17.887,0,0,0-.30747,7.144l7.44015.45684A7.20419,7.20419,0,0,1,103.36675,110.109Z" fill="#074bad"/>
    </g>
    <g>
      <path d="M52.30724,124.58492a3.68622,3.68622,0,0,1-2.41676-1.44333,14.27275,14.27275,0,0,1-2.65953-5.738c-.26179-1.021-.51605-2.04259-.77025-3.06514-.4498-1.81053-.88291-3.551-1.35243-5.28478a102.31466,102.31466,0,0,1-2.2631-10.37044c-.83863-5.18423-1.5695-9.86788-2.02279-14.69147-.17393-1.85759-.2902-3.70963-.40273-5.50045,0,0-.1037-1.63329-.152-2.33622a6.36068,6.36068,0,0,1,.83861-3.35734A3.43992,3.43992,0,0,1,43.78009,70.974a5.01146,5.01146,0,0,1,1.00082-.03854c.09065.00557.18112.01412.27153.02367a5.41326,5.41326,0,0,1,4.56295,3.865,10.44914,10.44914,0,0,1,.22713,1.20289l1.81693,12.84092c2.91127-.6012,6.06289-1.11865,9.8096-1.61356-.03739-.43327-.07577-.85061-.11364-1.26791-.08847-.96938-.17437-1.91561-.24059-2.86463-.062-.87877-.14555-1.75785-.22851-2.6379a49.06909,49.06909,0,0,1-.32832-6.85082,8.32017,8.32017,0,0,1,1.14077-4.13374,3.34318,3.34318,0,0,1,3.0843-1.72552l.17552.01578a3.92852,3.92852,0,0,1,1.22389.35913A5.759,5.759,0,0,1,69.362,71.87482a64.367,64.367,0,0,1,1.89432,8.86887c.29857,2.19722.61126,4.39231.9517,6.7871l.557,3.924c.194,1.26985.38153,2.6293.57488,4.0321.45028,3.26848.91549,6.64388,1.61411,10.01261a61.45515,61.45515,0,0,1,1.20556,9.66354,7.28279,7.28279,0,0,1-.58256,3.23407,5.20444,5.20444,0,0,1-5.13908,3.18928c-.09813-.006-.19663-.01407-.29544-.02514l-.13842-.0175A3.21461,3.21461,0,0,1,67.384,119.365c-.10813-.27463-.22137-.54757-.33466-.81951a15.33137,15.33137,0,0,1-1.27359-4.24,28.48438,28.48438,0,0,0-.81493-3.90084c-.25216-.98243-.50833-1.98111-.69953-3.0118-.56815-3.05873-.98532-6.16619-1.38819-9.17278l-.01582-.117c-.19007-1.4156-.3802-2.8302-.58589-4.24376-1.5211.21459-7.34394,1.039-9.70788,1.37382.36814,2.39948.88055,4.81083,1.37738,7.15022l.04812.22594c.18487.87331.36973,1.74662.5475,2.62149l.34074,1.64884a54.18021,54.18021,0,0,1,1.52783,11.33625,15.1497,15.1497,0,0,1-.36559,3.45438,3.52778,3.52778,0,0,1-2.50368,2.81412,3.227,3.227,0,0,1-1.062.11478Z" fill="#f15a29"/>
      <path d="M106.09173,122.32631a11.80488,11.80488,0,0,1-3.79667-.84109,11.20654,11.20654,0,0,1-3.716-2.50505c-.20287-.20545-.41084-.40121-.61931-.597l-.0827-.07807c-.302-.28453-.60353-.569-.89012-.86861a9.64778,9.64778,0,0,1-2.0032-3.22784,18.47681,18.47681,0,0,1-.846-11.36737,3.70219,3.70219,0,0,1,1.97331-2.35171,4.17761,4.17761,0,0,1,2.14322-.46137,3.45689,3.45689,0,0,1,1.1008.24658,2.8803,2.8803,0,0,1,.35929.17405,3.123,3.123,0,0,1,1.52211,3.3193c-.04855.408-.10525.8185-.16239,1.228l-.01513.10807c-.09285.66527-.18625,1.3315-.23825,1.99927a6.80728,6.80728,0,0,0,.86455,4.18388,2.83605,2.83605,0,0,0,1.4123,1.23166,5.329,5.329,0,0,0,1.693.33994c.11108.00682.22427.01177.34107.01494a8.53891,8.53891,0,0,0,3.359-.8177,4.23187,4.23187,0,0,0,2.50942-3.24975,7.18369,7.18369,0,0,0,.14224-.98122c.02828-.27325.04886-.47.07529-.66434a16.80954,16.80954,0,0,0-.90558-8.45018,10.77713,10.77713,0,0,0-2.59429-3.9831,33.0744,33.0744,0,0,0-5.67939-4.7445,10.81237,10.81237,0,0,1-3.37288-3.91591l-.29539-.49011c-2.37791-3.89182-2.18261-8.21261.55379-12.16238a12.82369,12.82369,0,0,1,11.525-5.676,14.4759,14.4759,0,0,1,2.09187.28544,14.749,14.749,0,0,1,2.52808.7702,13.80079,13.80079,0,0,1,6.87868,6.23707c.14546.25292.51072.86732.51072.86732a21.154,21.154,0,0,1,1.61993,3.10231,3.19389,3.19389,0,0,1-1.00881,4.10985,3.31561,3.31561,0,0,1-2.17074.68967,3.07447,3.07447,0,0,1-.97751-.227,4.21229,4.21229,0,0,1-1.25647-.83011c-.23994-.22072-.47664-.44525-.71334-.66977a24.13186,24.13186,0,0,0-1.86432-1.65439,3.99676,3.99676,0,0,0-.9198-.51545,5.81172,5.81172,0,0,0-1.82217-.40287,4.35217,4.35217,0,0,0-2.91838.70876.71531.71531,0,0,0-.28968.40219.52943.52943,0,0,0,.1841.28329,32.58752,32.58752,0,0,0,2.94558,2.41475c.52795.3994,1.04867.79435,1.55814,1.20162a10.23353,10.23353,0,0,1,2.36517,2.5521,10.406,10.406,0,0,0,.65794.90435,23.7728,23.7728,0,0,1,4.38066,8.98354c1.64841,6.54689,1.00381,12.534-1.91612,17.79545a12.38256,12.38256,0,0,1-7.03887,6.21647c-.32344.10513-.64213.22256-.96077.339a14.34711,14.34711,0,0,1-3.547.95615A16.38464,16.38464,0,0,1,106.09173,122.32631Z" fill="#ef4136"/>
      <path d="M45.01437,131.97981a6.03821,6.03821,0,0,1-3.60494-1.19749,14.90313,14.90313,0,0,1-4.8244-6.87909c-.8922-2.16157-1.73861-4.35724-2.55681-6.48016-.54111-1.40531-1.07011-2.77773-1.61258-4.14611-.56161-1.41622-1.13666-2.8254-1.71172-4.23558l-.04935-.12059c-.79159-1.94136-1.58267-3.88173-2.33688-5.8362l-.55262-1.41525a47.31018,47.31018,0,0,1-3.0275-9.78208,69.11044,69.11044,0,0,0-8.90274,2.76029c-.72016.25914-1.38251.4981-2.04738.73209a7.37661,7.37661,0,0,1-1.91379.41521c-.14917.01152-.29936.01806-.44907.01861a6.146,6.146,0,0,1-2.48011-.51393,5.002,5.002,0,0,1-2.35-2.20215,3.16533,3.16533,0,0,1,.83024-4.13807,9.44235,9.44235,0,0,1,3.51069-2.05989c3.83534-1.30453,7.66764-2.618,11.7357-4.01225l5.15709-1.76748c2.80109-1.09615,5.89891-2.11054,9.17766-3.18448,2.15477-.70453,4.48748-1.46761,6.77064-2.27242a5.85719,5.85719,0,0,1,1.51225-.36384c.08132-.00629.15816-.00956.23252-.00983a2.58627,2.58627,0,0,1,1.92069.78945,3.63922,3.63922,0,0,1,.64814,3.10964c-.03449.25663-.05751.51422-.08052.77181-.0283.3135-.0552.6-.09108.88663a4.84439,4.84439,0,0,1-2.58839,3.72032,50.82509,50.82509,0,0,1-8.75657,3.5662q-.78353.26187-1.565.52871c1.48383,3.05468,2.723,6.223,3.92246,9.28775l.04332.11063c.39141,1.00064.78332,2.00128,1.1832,2.99789,3.07662,7.658,6.03412,15.76355,8.79031,24.09242a15.81508,15.81508,0,0,1,.51484,1.86552,4.01857,4.01857,0,0,1-3.07748,4.804,6.46589,6.46589,0,0,1-.93817.14216C45.3008,131.97377,45.15709,131.97929,45.01437,131.97981Z" fill="#074bad"/>
      <path d="M42.46838,128.97423a6.03821,6.03821,0,0,1-3.60494-1.19749,14.90313,14.90313,0,0,1-4.8244-6.87909c-.8922-2.16157-1.73861-4.35724-2.55681-6.48016-.54111-1.40531-1.07011-2.77773-1.61258-4.14611-.56161-1.41622-1.13666-2.8254-1.71172-4.23558l-.04935-.12059c-.79159-1.94136-1.58267-3.88173-2.33688-5.8362l-.55262-1.41525a47.31018,47.31018,0,0,1-3.0275-9.78208A69.11044,69.11044,0,0,0,13.28885,91.642c-.72016.25914-1.38251.4981-2.04738.73209a7.37661,7.37661,0,0,1-1.91379.41521c-.14917.01152-.29936.01806-.44907.01861A6.146,6.146,0,0,1,6.39851,92.294a5.002,5.002,0,0,1-2.35-2.20215,3.16533,3.16533,0,0,1,.83024-4.13807,9.44235,9.44235,0,0,1,3.51069-2.05989c3.83534-1.30453,7.66764-2.618,11.7357-4.01225l5.15709-1.76748c2.80109-1.09615,5.89891-2.11054,9.17766-3.18448,2.15477-.70453,4.48748-1.46761,6.77064-2.27242a5.85719,5.85719,0,0,1,1.51225-.36384c.08132-.00629.15816-.00956.23252-.00983A2.58627,2.58627,0,0,1,44.896,73.073a3.63922,3.63922,0,0,1,.64814,3.10964c-.03449.25663-.05751.51422-.08052.77181-.0283.3135-.0552.6-.09108.88663a4.84439,4.84439,0,0,1-2.58839,3.72032,50.82509,50.82509,0,0,1-8.75657,3.5662q-.78353.26187-1.565.52871c1.48383,3.05468,2.723,6.223,3.92246,9.28775l.04332.11063c.39141,1.00064.78332,2.00128,1.1832,2.99789,3.07662,7.658,6.03412,15.76355,8.79031,24.09242a15.81508,15.81508,0,0,1,.51484,1.86552,4.01857,4.01857,0,0,1-3.07748,4.804,6.46589,6.46589,0,0,1-.93817.14216C42.75481,128.96819,42.61111,128.97371,42.46838,128.97423Z" fill="#8dc63f"/>
      <path d="M84.34239,121.38994a3.68165,3.68165,0,0,1-3.21007-2.67645l-.17669-.54443a17.37589,17.37589,0,0,1-.86252-3.434l-.18318-1.55476c-.33464-2.82972-.68115-5.75483-.93884-8.69646-.49135-5.61724-.71625-11.07045-.66668-16.20845.01127-1.20515.00565-2.41192-.0002-3.62674l1.02142-.13727-1.02221.00484c-.013-2.72856-.02653-5.55042.14691-8.51771.00743-1.0872.12956-2.52733.26044-3.91247a10.72637,10.72637,0,0,1,.98614-3.4726,3.10482,3.10482,0,0,1,3.16552-2.15577,2.98681,2.98681,0,0,1,.66084.13984A4.21638,4.21638,0,0,1,85.163,67.68284a7.30221,7.30221,0,0,1,1.82456,3.4605,49.97871,49.97871,0,0,1,1.27993,11.985c.01295,1.011.00375,2.02278-.00595,3.03456.1815-.09382.75236-.38879.75236-.38879.69228-.35848,1.38457-.717,2.08235-1.06487,1.27384-.63437,2.63494-1.30545,4.02646-1.91244.95881-.419,1.90321-.87056,2.84869-1.323a56.43054,56.43054,0,0,1,5.21646-2.28014,10.06656,10.06656,0,0,1,2.3046-.58224,4.22954,4.22954,0,0,1,.85754-.00767,3.532,3.532,0,0,1,.78289.16362,3.19934,3.19934,0,0,1,1.75877,1.42071,3.14927,3.14927,0,0,1-.31607,3.61032,8.61876,8.61876,0,0,1-3.23388,2.5272c-.82359.43607-1.62281.82737-2.423,1.21857-1.0779.52589-2.19207,1.06935-3.23284,1.673-1.106.6405-2.28063,1.21323-3.31689,1.71806-.55446.27048-1.10843.541-1.65689.82208q-1.02209.52425-2.03967,1.059c2.89068,1.9739,5.99863,4.01885,9.65235,6.352.76372.48765,1.54234.95067,2.32105,1.41269,1.17256.69848,2.37071,1.41246,3.524,2.20734,3.50785,2.41635,6.61557,4.67185,9.12694,7.79941a5.17239,5.17239,0,0,1,.63467.93746,3.07834,3.07834,0,0,1-.11357,3.15254,3.00482,3.00482,0,0,1-2.81322,1.24617l-.11773-.01134a11.3828,11.3828,0,0,1-2.52381-.50974,8.56083,8.56083,0,0,1-2.23756-1.1239c-.67906-.47649-1.42018-.92286-2.13671-1.35383a32.7619,32.7619,0,0,1-2.94254-1.92475c-.98314-.74441-2.03979-1.46482-3.06219-2.16087-1.01493-.69032-2.164-1.47176-3.24789-2.29406-.96572-.73271-2.0574-1.41738-3.11323-2.07855l-.14513-.09118c-.54221-.341-1.08361-.67989-1.61563-1.03293l-.29657-.195C91.8594,102.024,90.101,100.865,88.3316,99.7992c.03109,1.08289.06374,2.15991.09788,3.23707q.0424,1.32462.09285,2.649c.126,3.40322.2565,6.92118.09749,10.43633a9.39438,9.39438,0,0,1-.42123,2.5574,3.48028,3.48028,0,0,1-3.2967,2.7267A4.06987,4.06987,0,0,1,84.34239,121.38994Z" fill="#074bad"/>
      <path d="M81.79641,118.38436a3.68165,3.68165,0,0,1-3.21007-2.67645l-.17669-.54443a17.37589,17.37589,0,0,1-.86252-3.434l-.18318-1.55476c-.33464-2.82972-.68115-5.75483-.93884-8.69646-.49135-5.61724-.71625-11.07045-.66668-16.20845.01127-1.20515.00565-2.41192-.0002-3.62674l1.02142-.13727-1.02221.00484c-.013-2.72856-.02653-5.55042.14691-8.51771.00743-1.0872.12956-2.52733.26044-3.91247a10.72637,10.72637,0,0,1,.98614-3.4726,3.10482,3.10482,0,0,1,3.16552-2.15577,2.98681,2.98681,0,0,1,.66084.13984A4.21638,4.21638,0,0,1,82.617,64.67727a7.30221,7.30221,0,0,1,1.82456,3.4605,49.97871,49.97871,0,0,1,1.27993,11.985c.01295,1.011.00375,2.02278-.00595,3.03456.1815-.09382.75236-.38879.75236-.38879.69228-.35848,1.38457-.717,2.08235-1.06487,1.27384-.63437,2.63494-1.30545,4.02646-1.91244.95881-.419,1.90321-.87056,2.84869-1.323a56.43054,56.43054,0,0,1,5.21646-2.28014,10.06656,10.06656,0,0,1,2.3046-.58224,4.22954,4.22954,0,0,1,.85754-.00767,3.532,3.532,0,0,1,.78289.16362,3.19934,3.19934,0,0,1,1.75877,1.42071,3.14927,3.14927,0,0,1-.31607,3.61032,8.61876,8.61876,0,0,1-3.23388,2.5272c-.82359.43607-1.62281.82737-2.423,1.21857-1.0779.52589-2.19207,1.06935-3.23284,1.673-1.106.6405-2.28063,1.21323-3.31689,1.71806-.55446.27048-1.10843.541-1.65689.82208q-1.02209.52425-2.03967,1.059c2.89068,1.9739,5.99863,4.01885,9.65235,6.352.76372.48765,1.54234.95067,2.32105,1.41269,1.17256.69848,2.37071,1.41246,3.524,2.20734,3.50785,2.41635,6.61557,4.67185,9.12694,7.79941a5.17238,5.17238,0,0,1,.63467.93746,3.07834,3.07834,0,0,1-.11357,3.15254,3.00482,3.00482,0,0,1-2.81322,1.24617l-.11773-.01134a11.3828,11.3828,0,0,1-2.52381-.50974,8.56082,8.56082,0,0,1-2.23756-1.1239c-.67906-.47649-1.42018-.92286-2.13671-1.35383a32.762,32.762,0,0,1-2.94254-1.92475c-.98315-.74441-2.03979-1.46482-3.06219-2.16087-1.01493-.69032-2.164-1.47176-3.24789-2.29406-.96572-.73271-2.0574-1.41738-3.11323-2.07855l-.14513-.09118c-.54221-.341-1.08361-.67989-1.61563-1.03293l-.29657-.195c-1.70614-1.12386-3.46455-2.28284-5.23394-3.34862.03109,1.08289.06374,2.15991.09788,3.23707q.0424,1.32462.09285,2.649c.126,3.40322.2565,6.92118.09749,10.43633a9.39439,9.39439,0,0,1-.42123,2.5574,3.48028,3.48028,0,0,1-3.2967,2.7267A4.06987,4.06987,0,0,1,81.79641,118.38436Z" fill="#ffde17"/>
      <path d="M120.78263,128.1366l-1.00052-.32553-.37058-.12952a9.68361,9.68361,0,0,1-1.01781-.39644c-.098-.046-.19566-.098-.28962-.15337a3.49327,3.49327,0,0,1-1.6718-3.70441,3.38756,3.38756,0,0,1,3.31772-2.84527,8.11545,8.11545,0,0,1,1.88765.16951,8.5337,8.5337,0,0,1,1.475.45332,3.39074,3.39074,0,0,1,.42633.21154,3.62579,3.62579,0,0,1,1.51164,4.25313,3.48014,3.48014,0,0,1-3.2188,2.504l-.0686.19876Zm2.10757-11.12318a2.87546,2.87546,0,0,1-.88029-.34218,3.23437,3.23437,0,0,1-1.46285-2.08327,10.61444,10.61444,0,0,1-.08839-4.99548c.14709-.64221.30109-1.28094.46686-1.96615l.2228-.92616c1.07715-3.18241,2.357-6.46619,4.17438-10.73775a87.65645,87.65645,0,0,1,4.22446-8.33514,62.10911,62.10911,0,0,1,3.77684-6.11005,26.04663,26.04663,0,0,1,2.93642-3.25744l.46335-.45778a3.69135,3.69135,0,0,1,3.44065-1.06879,4.49218,4.49218,0,0,1,1.36924.54439c.15.0895.29969.18811.45044.29612a4.54929,4.54929,0,0,1,1.558,5.26211,6.83322,6.83322,0,0,1-.91641,1.52441c-.11441.15451-.21988.29559-.31209.44149l-.55628.885c-1.5231,2.42124-3.0882,4.90916-4.48247,7.41649-1.11365,2.0042-2.05241,4.17651-2.96,6.27786-.48886,1.13052-.955,2.20868-1.44763,3.27418-.44292.95965-.92124,1.90577-1.39957,2.85189-.44415.87782-.86939,1.7188-1.26772,2.57255q-1.49011,3.197-3.02612,6.37211a4.44024,4.44024,0,0,1-2.13,2.26371A3.42045,3.42045,0,0,1,122.8902,117.01342Z" fill="#f7941d"/>
      <path d="M100.82077,107.10344c.052-.66777.14541-1.334.23825-1.99927l.01513-.10807c.05714-.40947.11384-.82.16239-1.228a3.123,3.123,0,0,0-1.52211-3.3193,2.88032,2.88032,0,0,0-.35929-.17405,3.45688,3.45688,0,0,0-1.1008-.24658,4.17761,4.17761,0,0,0-2.14322.46137,3.70219,3.70219,0,0,0-1.97331,2.35171,17.887,17.887,0,0,0-.30747,7.144l7.44015.45684A7.20419,7.20419,0,0,1,100.82077,107.10344Z" fill="#ef4136"/>
    </g>
    <path d="M93.5632,22.56359l1.23831-1.105a.48556.48556,0,0,0,.15843-.423l-.20747-1.64759a.48513.48513,0,0,1,.72614-.47971l1.43172.83758a.48485.48485,0,0,0,.45124.02025l1.50061-.7059a.48522.48522,0,0,1,.68044.54249L99.18976,21.226a.48564.48564,0,0,0,.12015.43521l1.13555,1.21183a.48547.48547,0,0,1-.30568.815l-1.65.16479a.48507.48507,0,0,0-.37689.24912l-.799,1.45405a.485.485,0,0,1-.86928-.03877l-.66722-1.52059a.4852.4852,0,0,0-.35293-.28162l-1.62966-.31239A.48552.48552,0,0,1,93.5632,22.56359Z" fill="#ec008c"/>
    <path d="M127.73013,54.17781l1.23831-1.105a.48556.48556,0,0,0,.15843-.423l-.20747-1.64759a.48513.48513,0,0,1,.72614-.47971l1.43172.83758a.48485.48485,0,0,0,.45124.02025l1.50061-.7059a.48522.48522,0,0,1,.68044.54249l-.35286,1.62318a.48564.48564,0,0,0,.12015.43521l1.13555,1.21183a.48547.48547,0,0,1-.30568.815l-1.65.16479a.48507.48507,0,0,0-.37689.24912l-.799,1.45405a.485.485,0,0,1-.86928-.03877l-.66722-1.52059a.4852.4852,0,0,0-.35293-.28162l-1.62966-.31239A.48552.48552,0,0,1,127.73013,54.17781Z" fill="#8dc63f"/>
    <path d="M91.22448,59.48611l1.51371-.66464a.48021.48021,0,0,0,.27912-.35227l.3026-1.62795a.483.483,0,0,1,.83658-.23009L95.26472,57.85a.48751.48751,0,0,0,.42325.15914l1.6422-.20459a.48747.48747,0,0,1,.48285.72584l-.8284,1.431a.4843.4843,0,0,0-.01775.45029l.7128,1.50219a.48161.48161,0,0,1-.53823.6787l-1.62009-.35526a.48219.48219,0,0,0-.43425.11955l-1.20164,1.13217a.48657.48657,0,0,1-.81543-.30635l-.17343-1.65a.48882.48882,0,0,0-.25038-.3767l-1.456-.80183A.48439.48439,0,0,1,91.22448,59.48611Z" fill="#8dc63f"/>
    <path d="M17.19613,68.91147l1.51371-.66464a.48021.48021,0,0,0,.27912-.35227l.3026-1.62795a.483.483,0,0,1,.83658-.23009l1.10821,1.23887a.48751.48751,0,0,0,.42325.15914l1.6422-.20459a.48747.48747,0,0,1,.48285.72584l-.8284,1.431a.4843.4843,0,0,0-.01775.45029l.7128,1.50219a.48161.48161,0,0,1-.53823.6787L21.493,71.66274a.48219.48219,0,0,0-.43425.11955L19.8571,72.91445a.48657.48657,0,0,1-.81543-.30635l-.17343-1.65a.48882.48882,0,0,0-.25038-.3767l-1.456-.80183A.48439.48439,0,0,1,17.19613,68.91147Z" fill="#f7941d"/>
  </g>
</svg>
